<?xml version="1.0" encoding="iso-8859-1"?>
<!-- Uploaded to: SVG Repo, www.svgrepo.com, Generator: SVG Repo Mixer Tools -->
<svg height="800px" width="800px" version="1.1" id="Layer_1" xmlns="http://www.w3.org/2000/svg" xmlns:xlink="http://www.w3.org/1999/xlink" 
	 viewBox="0 0 390.206 390.206" xml:space="preserve">
<path style="fill:#FFFFFF;" d="M368.402,356.59c1.099,5.947-4.331,11.378-10.861,11.895H32.887c-7.046,0-11.378-5.947-10.861-11.895
	l31.418-237.382c0.517-5.43,5.43-9.244,10.861-9.244h54.174v29.285c0,5.947,4.913,10.861,10.861,10.861
	c5.947,0,10.861-4.848,10.861-10.861v-29.285h110.028v29.285c0,5.947,4.848,10.861,10.861,10.861
	c5.947,0,10.861-4.848,10.861-10.861v-29.285h54.174c5.43,0,10.279,3.814,10.861,9.244L368.402,356.59z"/>
<path style="fill:#FFC10D;" d="M345.065,346.828H44.847l11.895-93.22h23.855c5.947,0,10.861-4.848,10.861-10.861
	c0-5.947-4.848-10.861-10.861-10.861H60.039l3.232-25.988h35.232c5.947,0,10.861-4.913,10.861-10.861s-4.848-10.861-10.861-10.861
	h-32l7.046-53.139h44.994v8.145c0,5.947,4.913,10.861,10.861,10.861c5.947,0,10.861-4.848,10.861-10.861v-8.145h110.028v8.145
	c0,5.947,4.848,10.861,10.861,10.861c5.947,0,10.861-4.848,10.861-10.861v-8.145h44.412L345.065,346.828z"/>
<path style="fill:#56ACE0;" d="M194.956,184.242c-20.04,0-35.749,19.523-35.749,43.895s16.226,43.895,35.749,43.895
	c20.04,0,35.749-19.523,35.749-43.895S214.996,184.242,194.956,184.242z"/>
<g>
	<path style="fill:#194F82;" d="M390.059,353.358l-31.418-237.382c-2.198-16.291-16.291-28.186-32.517-28.186h-54.238V75.313
		C271.885,33.552,237.752,0,195.473,0s-76.412,33.616-76.412,75.313V87.79H64.887c-16.291,0-30.319,11.895-32.517,28.186
		l-32,237.382c-2.715,17.907,11.378,36.849,32.517,36.849h324.655C375.449,390.206,391.675,376.113,390.059,353.358z M140.2,75.313
		c0-29.802,24.372-53.657,54.756-53.657c30.319,0,54.756,23.855,54.756,53.657V87.79H140.2V75.313z M357.542,368.549H32.887
		c-7.046,0-11.378-5.947-10.861-11.895l31.418-237.382c0.517-5.43,5.43-9.244,10.861-9.244h54.174v29.285
		c0,5.947,4.848,10.861,10.861,10.861c6.012,0,10.861-4.848,10.861-10.861v-29.285h110.028v29.285
		c0,5.947,4.848,10.861,10.861,10.861c6.012,0,10.861-4.848,10.861-10.861v-29.285h54.174c5.43,0,10.279,3.814,10.861,9.244
		l31.418,237.382C369.501,362.602,364.071,367.968,357.542,368.549z"/>
	<path style="fill:#194F82;" d="M194.956,293.172c32,0,57.471-29.285,57.471-65.552s-26.053-65.552-57.471-65.552
		c-32,0-57.471,29.285-57.471,65.551S163.538,293.172,194.956,293.172z M194.956,184.242c20.04,0,35.749,19.523,35.749,43.895
		s-16.226,43.895-35.749,43.895c-20.04,0-35.749-19.523-35.749-43.895S175.433,184.242,194.956,184.242z"/>
	<path style="fill:#194F82;" d="M258.891,316.509H131.021c-5.947,0-10.861,4.848-10.861,10.861c0,5.948,4.848,10.861,10.861,10.861
		h127.354c5.947,0,10.861-4.848,10.861-10.861S264.839,316.509,258.891,316.509z"/>
</g>
</svg>