<svg width="50" height="52" viewBox="0 0 50 52" fill="none" xmlns="http://www.w3.org/2000/svg">
<path opacity="0.5" d="M0 36.875C0 29.804 0 26.2685 2.1967 24.0718C4.3934 21.875 7.92893 21.875 15 21.875H35C42.071 21.875 45.6065 21.875 47.8032 24.0718C50 26.2685 50 29.804 50 36.875C50 43.946 50 47.4815 47.8032 49.6782C45.6065 51.875 42.071 51.875 35 51.875H15C7.92893 51.875 4.3934 51.875 2.1967 49.6782C0 47.4815 0 43.946 0 36.875Z" fill="#09A45A"/>
<path d="M25 41.875C27.7615 41.875 30 39.6365 30 36.875C30 34.1135 27.7615 31.875 25 31.875C22.2385 31.875 20 34.1135 20 36.875C20 39.6365 22.2385 41.875 25 41.875Z" fill="#09A45A"/>
<path d="M11.875 16.875C11.875 9.62627 17.7513 3.75 25 3.75C32.2487 3.75 38.125 9.62627 38.125 16.875V21.884C39.5435 21.8973 40.7837 21.93 41.875 22.0115V16.875C41.875 7.5552 34.3198 0 25 0C15.6802 0 8.125 7.5552 8.125 16.875V22.0115C9.21627 21.93 10.4566 21.8973 11.875 21.884V16.875Z" fill="#09A45A"/>
</svg>
